<?xml version="1.0" standalone="no"?><!DOCTYPE svg PUBLIC "-//W3C//DTD SVG 1.1//EN" "http://www.w3.org/Graphics/SVG/1.1/DTD/svg11.dtd"><svg t="1757596686115" class="icon" viewBox="0 0 1024 1024" version="1.1" xmlns="http://www.w3.org/2000/svg" p-id="1641" width="256" height="256" xmlns:xlink="http://www.w3.org/1999/xlink"><path d="M334.556 485.444l264.665 271.283-392.36-10.609 26.706-159.685 100.989-100.989zM168.265 298.971l127.386-3.125 3.32-127.58-175.59-44.69 44.884 175.395z m30.667 533.066l498.462 25.316 89.24 91.47 54.626-1.884 52.742-52.742 52.938-52.937 1.883-54.626-91.47-89.24-25.317-498.461 28.255-5.652-3.767-67.812-305.153-11.302-48.974 26.372L321.37 321.566l-180.832 180.83-26.37 48.975 11.301 305.152 67.812 3.768 5.65-28.254zM756.727 599.22L485.443 334.556l100.99-100.989 159.685-26.706 10.609 392.36z" p-id="1642" fill="#ffffff"></path></svg>